<svg width="922" height="504" viewBox="0 0 922 504" fill="none" xmlns="http://www.w3.org/2000/svg">
<path d="M155.842 365.432L146.74 399.248H142.368L151.47 365.432H155.842ZM178.452 395H168.881V366.756H178.645C181.449 366.756 183.858 367.322 185.871 368.453C187.894 369.574 189.448 371.188 190.533 373.293C191.617 375.399 192.16 377.918 192.16 380.851C192.16 383.793 191.613 386.321 190.519 388.436C189.434 390.55 187.866 392.173 185.816 393.304C183.775 394.435 181.32 395 178.452 395ZM173.997 390.573H178.204C180.171 390.573 181.812 390.215 183.127 389.497C184.442 388.771 185.43 387.691 186.092 386.257C186.754 384.813 187.085 383.011 187.085 380.851C187.085 378.69 186.754 376.897 186.092 375.472C185.43 374.038 184.451 372.967 183.154 372.259C181.867 371.542 180.268 371.183 178.355 371.183H173.997V390.573ZM206.178 395.414C204.054 395.414 202.22 394.972 200.676 394.09C199.14 393.198 197.959 391.938 197.131 390.311C196.304 388.675 195.89 386.748 195.89 384.533C195.89 382.354 196.304 380.441 197.131 378.796C197.968 377.141 199.136 375.854 200.634 374.934C202.133 374.006 203.894 373.541 205.916 373.541C207.222 373.541 208.454 373.753 209.612 374.176C210.78 374.59 211.81 375.233 212.701 376.107C213.602 376.98 214.31 378.092 214.825 379.444C215.34 380.786 215.597 382.386 215.597 384.243V385.774H198.235V382.409H210.812C210.803 381.453 210.596 380.602 210.191 379.858C209.787 379.104 209.221 378.511 208.495 378.079C207.778 377.647 206.941 377.43 205.985 377.43C204.965 377.43 204.068 377.679 203.296 378.175C202.524 378.662 201.922 379.306 201.489 380.106C201.066 380.897 200.85 381.765 200.841 382.712V385.65C200.841 386.882 201.066 387.939 201.517 388.822C201.967 389.695 202.597 390.366 203.406 390.835C204.215 391.295 205.162 391.525 206.247 391.525C206.974 391.525 207.631 391.424 208.219 391.221C208.808 391.01 209.318 390.702 209.75 390.297C210.182 389.893 210.509 389.392 210.729 388.794L215.391 389.318C215.096 390.55 214.536 391.626 213.708 392.545C212.89 393.455 211.842 394.163 210.564 394.669C209.286 395.165 207.824 395.414 206.178 395.414ZM238.135 373.817L230.591 395H225.075L217.532 373.817H222.855L227.723 389.553H227.944L232.826 373.817H238.135ZM250.247 395.414C248.123 395.414 246.289 394.972 244.744 394.09C243.209 393.198 242.028 391.938 241.2 390.311C240.373 388.675 239.959 386.748 239.959 384.533C239.959 382.354 240.373 380.441 241.2 378.796C242.037 377.141 243.204 375.854 244.703 374.934C246.202 374.006 247.962 373.541 249.985 373.541C251.29 373.541 252.522 373.753 253.681 374.176C254.848 374.59 255.878 375.233 256.77 376.107C257.671 376.98 258.379 378.092 258.894 379.444C259.409 380.786 259.666 382.386 259.666 384.243V385.774H242.303V382.409H254.881C254.871 381.453 254.664 380.602 254.26 379.858C253.855 379.104 253.29 378.511 252.564 378.079C251.847 377.647 251.01 377.43 250.054 377.43C249.033 377.43 248.137 377.679 247.365 378.175C246.592 378.662 245.99 379.306 245.558 380.106C245.135 380.897 244.919 381.765 244.91 382.712V385.65C244.91 386.882 245.135 387.939 245.586 388.822C246.036 389.695 246.666 390.366 247.475 390.835C248.284 391.295 249.231 391.525 250.316 391.525C251.042 391.525 251.699 391.424 252.288 391.221C252.876 391.01 253.387 390.702 253.819 390.297C254.251 389.893 254.577 389.392 254.798 388.794L259.459 389.318C259.165 390.55 258.604 391.626 257.777 392.545C256.958 393.455 255.91 394.163 254.632 394.669C253.354 395.165 251.893 395.414 250.247 395.414ZM268.882 366.756V395H263.889V366.756H268.882ZM283.255 395.414C281.187 395.414 279.394 394.959 277.877 394.048C276.36 393.138 275.183 391.865 274.346 390.228C273.519 388.592 273.105 386.68 273.105 384.491C273.105 382.303 273.519 380.386 274.346 378.741C275.183 377.095 276.36 375.817 277.877 374.907C279.394 373.997 281.187 373.541 283.255 373.541C285.324 373.541 287.117 373.997 288.634 374.907C290.151 375.817 291.323 377.095 292.15 378.741C292.987 380.386 293.405 382.303 293.405 384.491C293.405 386.68 292.987 388.592 292.15 390.228C291.323 391.865 290.151 393.138 288.634 394.048C287.117 394.959 285.324 395.414 283.255 395.414ZM283.283 391.414C284.404 391.414 285.342 391.106 286.096 390.49C286.85 389.865 287.411 389.029 287.779 387.98C288.156 386.932 288.344 385.765 288.344 384.478C288.344 383.181 288.156 382.009 287.779 380.961C287.411 379.904 286.85 379.062 286.096 378.437C285.342 377.812 284.404 377.499 283.283 377.499C282.134 377.499 281.177 377.812 280.414 378.437C279.66 379.062 279.095 379.904 278.718 380.961C278.35 382.009 278.166 383.181 278.166 384.478C278.166 385.765 278.35 386.932 278.718 387.98C279.095 389.029 279.66 389.865 280.414 390.49C281.177 391.106 282.134 391.414 283.283 391.414ZM297.642 402.944V373.817H302.552V377.32H302.842C303.099 376.805 303.462 376.258 303.931 375.679C304.4 375.091 305.034 374.59 305.834 374.176C306.634 373.753 307.655 373.541 308.896 373.541C310.532 373.541 312.008 373.96 313.323 374.796C314.647 375.624 315.695 376.851 316.467 378.479C317.248 380.097 317.639 382.083 317.639 384.436C317.639 386.762 317.258 388.739 316.494 390.366C315.731 391.994 314.692 393.235 313.378 394.09C312.063 394.945 310.574 395.372 308.91 395.372C307.696 395.372 306.689 395.17 305.889 394.766C305.089 394.361 304.446 393.874 303.959 393.304C303.481 392.725 303.108 392.177 302.842 391.663H302.635V402.944H297.642ZM302.538 384.409C302.538 385.779 302.731 386.978 303.117 388.008C303.513 389.038 304.078 389.842 304.814 390.421C305.558 390.991 306.459 391.276 307.517 391.276C308.62 391.276 309.544 390.982 310.289 390.394C311.033 389.796 311.594 388.983 311.971 387.953C312.357 386.914 312.55 385.733 312.55 384.409C312.55 383.094 312.362 381.926 311.985 380.906C311.608 379.885 311.047 379.085 310.302 378.506C309.558 377.927 308.629 377.637 307.517 377.637C306.45 377.637 305.545 377.918 304.8 378.479C304.055 379.039 303.49 379.826 303.104 380.837C302.727 381.848 302.538 383.039 302.538 384.409ZM331.292 395.414C329.168 395.414 327.334 394.972 325.789 394.09C324.254 393.198 323.073 391.938 322.245 390.311C321.418 388.675 321.004 386.748 321.004 384.533C321.004 382.354 321.418 380.441 322.245 378.796C323.082 377.141 324.25 375.854 325.748 374.934C327.247 374.006 329.007 373.541 331.03 373.541C332.336 373.541 333.568 373.753 334.726 374.176C335.894 374.59 336.923 375.233 337.815 376.107C338.716 376.98 339.424 378.092 339.939 379.444C340.454 380.786 340.711 382.386 340.711 384.243V385.774H323.349V382.409H335.926C335.917 381.453 335.71 380.602 335.305 379.858C334.901 379.104 334.335 378.511 333.609 378.079C332.892 377.647 332.055 377.43 331.099 377.43C330.078 377.43 329.182 377.679 328.41 378.175C327.637 378.662 327.035 379.306 326.603 380.106C326.18 380.897 325.964 381.765 325.955 382.712V385.65C325.955 386.882 326.18 387.939 326.631 388.822C327.081 389.695 327.711 390.366 328.52 390.835C329.329 391.295 330.276 391.525 331.361 391.525C332.087 391.525 332.745 391.424 333.333 391.221C333.921 391.01 334.432 390.702 334.864 390.297C335.296 389.893 335.622 389.392 335.843 388.794L340.504 389.318C340.21 390.55 339.649 391.626 338.822 392.545C338.004 393.455 336.955 394.163 335.678 394.669C334.4 395.165 332.938 395.414 331.292 395.414ZM344.935 395V373.817H349.775V377.348H349.996C350.382 376.125 351.044 375.183 351.982 374.521C352.929 373.849 354.009 373.514 355.223 373.514C355.498 373.514 355.806 373.528 356.147 373.555C356.496 373.574 356.786 373.606 357.015 373.652V378.244C356.804 378.171 356.468 378.106 356.009 378.051C355.558 377.987 355.121 377.955 354.699 377.955C353.788 377.955 352.97 378.152 352.244 378.548C351.527 378.934 350.961 379.472 350.547 380.161C350.134 380.851 349.927 381.646 349.927 382.547V395H344.935ZM379.343 395.414C377.219 395.414 375.385 394.972 373.84 394.09C372.305 393.198 371.123 391.938 370.296 390.311C369.468 388.675 369.055 386.748 369.055 384.533C369.055 382.354 369.468 380.441 370.296 378.796C371.133 377.141 372.3 375.854 373.799 374.934C375.297 374.006 377.058 373.541 379.081 373.541C380.386 373.541 381.618 373.753 382.777 374.176C383.944 374.59 384.974 375.233 385.866 376.107C386.767 376.98 387.475 378.092 387.99 379.444C388.504 380.786 388.762 382.386 388.762 384.243V385.774H371.399V382.409H383.976C383.967 381.453 383.76 380.602 383.356 379.858C382.951 379.104 382.386 378.511 381.66 378.079C380.942 377.647 380.106 377.43 379.15 377.43C378.129 377.43 377.233 377.679 376.46 378.175C375.688 378.662 375.086 379.306 374.654 380.106C374.231 380.897 374.015 381.765 374.006 382.712V385.65C374.006 386.882 374.231 387.939 374.681 388.822C375.132 389.695 375.762 390.366 376.571 390.835C377.38 391.295 378.327 391.525 379.412 391.525C380.138 391.525 380.795 391.424 381.384 391.221C381.972 391.01 382.482 390.702 382.915 390.297C383.347 389.893 383.673 389.392 383.894 388.794L388.555 389.318C388.261 390.55 387.7 391.626 386.872 392.545C386.054 393.455 385.006 394.163 383.728 394.669C382.45 395.165 380.988 395.414 379.343 395.414ZM396.612 373.817L400.887 381.637L405.232 373.817H410.513L404.128 384.409L410.624 395H405.369L400.887 387.374L396.447 395H391.151L397.605 384.409L391.317 373.817H396.612ZM414.375 402.944V373.817H419.284V377.32H419.574C419.831 376.805 420.195 376.258 420.663 375.679C421.132 375.091 421.767 374.59 422.567 374.176C423.366 373.753 424.387 373.541 425.628 373.541C427.265 373.541 428.74 373.96 430.055 374.796C431.379 375.624 432.427 376.851 433.199 378.479C433.981 380.097 434.372 382.083 434.372 384.436C434.372 386.762 433.99 388.739 433.227 390.366C432.464 391.994 431.425 393.235 430.11 394.09C428.795 394.945 427.306 395.372 425.642 395.372C424.428 395.372 423.422 395.17 422.622 394.766C421.822 394.361 421.178 393.874 420.691 393.304C420.213 392.725 419.841 392.177 419.574 391.663H419.367V402.944H414.375ZM419.271 384.409C419.271 385.779 419.464 386.978 419.85 388.008C420.245 389.038 420.811 389.842 421.546 390.421C422.291 390.991 423.192 391.276 424.249 391.276C425.352 391.276 426.276 390.982 427.021 390.394C427.766 389.796 428.327 388.983 428.704 387.953C429.09 386.914 429.283 385.733 429.283 384.409C429.283 383.094 429.094 381.926 428.717 380.906C428.34 379.885 427.78 379.085 427.035 378.506C426.29 377.927 425.362 377.637 424.249 377.637C423.183 377.637 422.277 377.918 421.532 378.479C420.788 379.039 420.222 379.826 419.836 380.837C419.459 381.848 419.271 383.039 419.271 384.409ZM448.024 395.414C445.901 395.414 444.066 394.972 442.522 394.09C440.987 393.198 439.805 391.938 438.978 390.311C438.15 388.675 437.736 386.748 437.736 384.533C437.736 382.354 438.15 380.441 438.978 378.796C439.814 377.141 440.982 375.854 442.481 374.934C443.979 374.006 445.74 373.541 447.762 373.541C449.068 373.541 450.3 373.753 451.458 374.176C452.626 374.59 453.656 375.233 454.547 376.107C455.448 376.98 456.156 378.092 456.671 379.444C457.186 380.786 457.444 382.386 457.444 384.243V385.774H440.081V382.409H452.658C452.649 381.453 452.442 380.602 452.038 379.858C451.633 379.104 451.068 378.511 450.341 378.079C449.624 377.647 448.788 377.43 447.831 377.43C446.811 377.43 445.914 377.679 445.142 378.175C444.37 378.662 443.768 379.306 443.336 380.106C442.913 380.897 442.697 381.765 442.687 382.712V385.65C442.687 386.882 442.913 387.939 443.363 388.822C443.814 389.695 444.443 390.366 445.252 390.835C446.062 391.295 447.009 391.525 448.093 391.525C448.82 391.525 449.477 391.424 450.065 391.221C450.654 391.01 451.164 390.702 451.596 390.297C452.028 389.893 452.355 389.392 452.575 388.794L457.237 389.318C456.942 390.55 456.382 391.626 455.554 392.545C454.736 393.455 453.688 394.163 452.41 394.669C451.132 395.165 449.67 395.414 448.024 395.414ZM461.667 395V373.817H466.508V377.348H466.728C467.114 376.125 467.776 375.183 468.714 374.521C469.661 373.849 470.741 373.514 471.955 373.514C472.231 373.514 472.539 373.528 472.879 373.555C473.228 373.574 473.518 373.606 473.748 373.652V378.244C473.536 378.171 473.201 378.106 472.741 378.051C472.291 377.987 471.854 377.955 471.431 377.955C470.521 377.955 469.702 378.152 468.976 378.548C468.259 378.934 467.694 379.472 467.28 380.161C466.866 380.851 466.659 381.646 466.659 382.547V395H461.667ZM477.064 395V373.817H482.057V395H477.064ZM479.574 370.811C478.784 370.811 478.103 370.549 477.533 370.025C476.963 369.492 476.678 368.853 476.678 368.108C476.678 367.354 476.963 366.715 477.533 366.191C478.103 365.658 478.784 365.391 479.574 365.391C480.374 365.391 481.055 365.658 481.615 366.191C482.185 366.715 482.47 367.354 482.47 368.108C482.47 368.853 482.185 369.492 481.615 370.025C481.055 370.549 480.374 370.811 479.574 370.811ZM496.568 395.414C494.444 395.414 492.61 394.972 491.066 394.09C489.53 393.198 488.349 391.938 487.521 390.311C486.694 388.675 486.28 386.748 486.28 384.533C486.28 382.354 486.694 380.441 487.521 378.796C488.358 377.141 489.526 375.854 491.024 374.934C492.523 374.006 494.283 373.541 496.306 373.541C497.612 373.541 498.844 373.753 500.002 374.176C501.17 374.59 502.199 375.233 503.091 376.107C503.992 376.98 504.7 378.092 505.215 379.444C505.73 380.786 505.987 382.386 505.987 384.243V385.774H488.625V382.409H501.202C501.193 381.453 500.986 380.602 500.581 379.858C500.177 379.104 499.611 378.511 498.885 378.079C498.168 377.647 497.331 377.43 496.375 377.43C495.355 377.43 494.458 377.679 493.686 378.175C492.914 378.662 492.311 379.306 491.879 380.106C491.456 380.897 491.24 381.765 491.231 382.712V385.65C491.231 386.882 491.456 387.939 491.907 388.822C492.357 389.695 492.987 390.366 493.796 390.835C494.605 391.295 495.552 391.525 496.637 391.525C497.363 391.525 498.021 391.424 498.609 391.221C499.198 391.01 499.708 390.702 500.14 390.297C500.572 389.893 500.898 389.392 501.119 388.794L505.78 389.318C505.486 390.55 504.925 391.626 504.098 392.545C503.28 393.455 502.232 394.163 500.954 394.669C499.676 395.165 498.214 395.414 496.568 395.414ZM515.203 382.588V395H510.211V373.817H514.982V377.417H515.231C515.718 376.231 516.495 375.288 517.561 374.59C518.637 373.891 519.965 373.541 521.547 373.541C523.009 373.541 524.282 373.854 525.367 374.479C526.461 375.104 527.307 376.01 527.904 377.196C528.511 378.382 528.81 379.821 528.801 381.513V395H523.808V382.285C523.808 380.869 523.441 379.761 522.705 378.961C521.979 378.161 520.972 377.761 519.685 377.761C518.812 377.761 518.035 377.955 517.354 378.341C516.683 378.718 516.155 379.265 515.768 379.982C515.391 380.699 515.203 381.568 515.203 382.588ZM543.116 395.414C541.001 395.414 539.185 394.949 537.668 394.021C536.16 393.092 534.997 391.81 534.179 390.173C533.37 388.528 532.966 386.634 532.966 384.491C532.966 382.34 533.379 380.441 534.207 378.796C535.034 377.141 536.202 375.854 537.71 374.934C539.227 374.006 541.019 373.541 543.088 373.541C544.807 373.541 546.329 373.859 547.653 374.493C548.986 375.118 550.048 376.005 550.838 377.155C551.629 378.295 552.08 379.628 552.19 381.154H547.418C547.225 380.133 546.766 379.283 546.039 378.603C545.322 377.913 544.361 377.568 543.157 377.568C542.136 377.568 541.24 377.844 540.468 378.396C539.695 378.938 539.093 379.72 538.661 380.74C538.238 381.761 538.027 382.984 538.027 384.409C538.027 385.852 538.238 387.093 538.661 388.132C539.084 389.162 539.677 389.957 540.44 390.518C541.212 391.07 542.118 391.345 543.157 391.345C543.892 391.345 544.55 391.208 545.129 390.932C545.717 390.647 546.209 390.238 546.605 389.704C547 389.171 547.271 388.523 547.418 387.76H552.19C552.07 389.258 551.629 390.587 550.866 391.745C550.103 392.895 549.064 393.796 547.749 394.448C546.435 395.092 544.89 395.414 543.116 395.414ZM565.667 395.414C563.543 395.414 561.709 394.972 560.164 394.09C558.629 393.198 557.448 391.938 556.62 390.311C555.793 388.675 555.379 386.748 555.379 384.533C555.379 382.354 555.793 380.441 556.62 378.796C557.457 377.141 558.625 375.854 560.123 374.934C561.622 374.006 563.382 373.541 565.405 373.541C566.711 373.541 567.943 373.753 569.101 374.176C570.269 374.59 571.298 375.233 572.19 376.107C573.091 376.98 573.799 378.092 574.314 379.444C574.829 380.786 575.086 382.386 575.086 384.243V385.774H557.724V382.409H570.301C570.292 381.453 570.085 380.602 569.68 379.858C569.276 379.104 568.71 378.511 567.984 378.079C567.267 377.647 566.43 377.43 565.474 377.43C564.453 377.43 563.557 377.679 562.785 378.175C562.012 378.662 561.41 379.306 560.978 380.106C560.555 380.897 560.339 381.765 560.33 382.712V385.65C560.33 386.882 560.555 387.939 561.006 388.822C561.456 389.695 562.086 390.366 562.895 390.835C563.704 391.295 564.651 391.525 565.736 391.525C566.462 391.525 567.12 391.424 567.708 391.221C568.296 391.01 568.807 390.702 569.239 390.297C569.671 389.893 569.997 389.392 570.218 388.794L574.879 389.318C574.585 390.55 574.024 391.626 573.197 392.545C572.379 393.455 571.33 394.163 570.053 394.669C568.775 395.165 567.313 395.414 565.667 395.414ZM598.182 395.414C596.068 395.414 594.252 394.949 592.735 394.021C591.227 393.092 590.064 391.81 589.246 390.173C588.437 388.528 588.032 386.634 588.032 384.491C588.032 382.34 588.446 380.441 589.273 378.796C590.101 377.141 591.269 375.854 592.776 374.934C594.293 374.006 596.086 373.541 598.155 373.541C599.874 373.541 601.396 373.859 602.72 374.493C604.053 375.118 605.115 376.005 605.905 377.155C606.696 378.295 607.146 379.628 607.257 381.154H602.485C602.292 380.133 601.832 379.283 601.106 378.603C600.389 377.913 599.428 377.568 598.224 377.568C597.203 377.568 596.307 377.844 595.534 378.396C594.762 378.938 594.16 379.72 593.728 380.74C593.305 381.761 593.094 382.984 593.094 384.409C593.094 385.852 593.305 387.093 593.728 388.132C594.151 389.162 594.744 389.957 595.507 390.518C596.279 391.07 597.185 391.345 598.224 391.345C598.959 391.345 599.617 391.208 600.196 390.932C600.784 390.647 601.276 390.238 601.671 389.704C602.067 389.171 602.338 388.523 602.485 387.76H607.257C607.137 389.258 606.696 390.587 605.933 391.745C605.17 392.895 604.131 393.796 602.816 394.448C601.501 395.092 599.957 395.414 598.182 395.414ZM620.596 395.414C618.527 395.414 616.734 394.959 615.217 394.048C613.7 393.138 612.524 391.865 611.687 390.228C610.86 388.592 610.446 386.68 610.446 384.491C610.446 382.303 610.86 380.386 611.687 378.741C612.524 377.095 613.7 375.817 615.217 374.907C616.734 373.997 618.527 373.541 620.596 373.541C622.664 373.541 624.457 373.997 625.974 374.907C627.491 375.817 628.663 377.095 629.491 378.741C630.328 380.386 630.746 382.303 630.746 384.491C630.746 386.68 630.328 388.592 629.491 390.228C628.663 391.865 627.491 393.138 625.974 394.048C624.457 394.959 622.664 395.414 620.596 395.414ZM620.623 391.414C621.745 391.414 622.683 391.106 623.437 390.49C624.191 389.865 624.752 389.029 625.119 387.98C625.496 386.932 625.685 385.765 625.685 384.478C625.685 383.181 625.496 382.009 625.119 380.961C624.752 379.904 624.191 379.062 623.437 378.437C622.683 377.812 621.745 377.499 620.623 377.499C619.474 377.499 618.518 377.812 617.755 378.437C617.001 379.062 616.436 379.904 616.059 380.961C615.691 382.009 615.507 383.181 615.507 384.478C615.507 385.765 615.691 386.932 616.059 387.98C616.436 389.029 617.001 389.865 617.755 390.49C618.518 391.106 619.474 391.414 620.623 391.414ZM639.975 382.588V395H634.983V373.817H639.755V377.417H640.003C640.49 376.231 641.267 375.288 642.334 374.59C643.409 373.891 644.738 373.541 646.319 373.541C647.781 373.541 649.054 373.854 650.139 374.479C651.233 375.104 652.079 376.01 652.677 377.196C653.284 378.382 653.582 379.821 653.573 381.513V395H648.581V382.285C648.581 380.869 648.213 379.761 647.478 378.961C646.751 378.161 645.745 377.761 644.457 377.761C643.584 377.761 642.807 377.955 642.127 378.341C641.456 378.718 640.927 379.265 640.541 379.982C640.164 380.699 639.975 381.568 639.975 382.588ZM669.377 373.817V377.679H656.855V373.817H669.377ZM659.986 395V371.818C659.986 370.393 660.28 369.207 660.868 368.26C661.466 367.313 662.266 366.605 663.268 366.136C664.27 365.667 665.383 365.432 666.605 365.432C667.47 365.432 668.237 365.501 668.909 365.639C669.58 365.777 670.076 365.901 670.398 366.012L669.405 369.873C669.194 369.809 668.927 369.744 668.605 369.68C668.283 369.607 667.925 369.57 667.529 369.57C666.601 369.57 665.944 369.795 665.557 370.245C665.18 370.687 664.992 371.321 664.992 372.149V395H659.986ZM681.868 395.414C679.745 395.414 677.91 394.972 676.366 394.09C674.831 393.198 673.649 391.938 672.822 390.311C671.994 388.675 671.58 386.748 671.58 384.533C671.58 382.354 671.994 380.441 672.822 378.796C673.658 377.141 674.826 375.854 676.325 374.934C677.823 374.006 679.584 373.541 681.606 373.541C682.912 373.541 684.144 373.753 685.302 374.176C686.47 374.59 687.5 375.233 688.392 376.107C689.293 376.98 690 378.092 690.515 379.444C691.03 380.786 691.288 382.386 691.288 384.243V385.774H673.925V382.409H686.502C686.493 381.453 686.286 380.602 685.882 379.858C685.477 379.104 684.912 378.511 684.185 378.079C683.468 377.647 682.632 377.43 681.675 377.43C680.655 377.43 679.758 377.679 678.986 378.175C678.214 378.662 677.612 379.306 677.18 380.106C676.757 380.897 676.541 381.765 676.531 382.712V385.65C676.531 386.882 676.757 387.939 677.207 388.822C677.658 389.695 678.287 390.366 679.096 390.835C679.906 391.295 680.853 391.525 681.937 391.525C682.664 391.525 683.321 391.424 683.909 391.221C684.498 391.01 685.008 390.702 685.44 390.297C685.872 389.893 686.199 389.392 686.419 388.794L691.081 389.318C690.787 390.55 690.226 391.626 689.398 392.545C688.58 393.455 687.532 394.163 686.254 394.669C684.976 395.165 683.514 395.414 681.868 395.414ZM695.511 395V373.817H700.352V377.348H700.572C700.958 376.125 701.62 375.183 702.558 374.521C703.505 373.849 704.585 373.514 705.799 373.514C706.075 373.514 706.383 373.528 706.723 373.555C707.072 373.574 707.362 373.606 707.592 373.652V378.244C707.38 378.171 707.045 378.106 706.585 378.051C706.135 377.987 705.698 377.955 705.275 377.955C704.365 377.955 703.546 378.152 702.82 378.548C702.103 378.934 701.538 379.472 701.124 380.161C700.71 380.851 700.503 381.646 700.503 382.547V395H695.511ZM719.414 395.414C717.29 395.414 715.456 394.972 713.911 394.09C712.376 393.198 711.195 391.938 710.367 390.311C709.54 388.675 709.126 386.748 709.126 384.533C709.126 382.354 709.54 380.441 710.367 378.796C711.204 377.141 712.371 375.854 713.87 374.934C715.369 374.006 717.129 373.541 719.152 373.541C720.457 373.541 721.689 373.753 722.848 374.176C724.016 374.59 725.045 375.233 725.937 376.107C726.838 376.98 727.546 378.092 728.061 379.444C728.576 380.786 728.833 382.386 728.833 384.243V385.774H711.47V382.409H724.048C724.039 381.453 723.832 380.602 723.427 379.858C723.023 379.104 722.457 378.511 721.731 378.079C721.014 377.647 720.177 377.43 719.221 377.43C718.2 377.43 717.304 377.679 716.532 378.175C715.759 378.662 715.157 379.306 714.725 380.106C714.302 380.897 714.086 381.765 714.077 382.712V385.65C714.077 386.882 714.302 387.939 714.753 388.822C715.203 389.695 715.833 390.366 716.642 390.835C717.451 391.295 718.398 391.525 719.483 391.525C720.209 391.525 720.867 391.424 721.455 391.221C722.043 391.01 722.554 390.702 722.986 390.297C723.418 389.893 723.744 389.392 723.965 388.794L728.626 389.318C728.332 390.55 727.771 391.626 726.944 392.545C726.126 393.455 725.077 394.163 723.799 394.669C722.522 395.165 721.06 395.414 719.414 395.414ZM738.049 382.588V395H733.057V373.817H737.828V377.417H738.076C738.564 376.231 739.341 375.288 740.407 374.59C741.483 373.891 742.811 373.541 744.393 373.541C745.854 373.541 747.128 373.854 748.213 374.479C749.307 375.104 750.153 376.01 750.75 377.196C751.357 378.382 751.656 379.821 751.647 381.513V395H746.654V382.285C746.654 380.869 746.287 379.761 745.551 378.961C744.825 378.161 743.818 377.761 742.531 377.761C741.657 377.761 740.881 377.955 740.2 378.341C739.529 378.718 739 379.265 738.614 379.982C738.237 380.699 738.049 381.568 738.049 382.588ZM765.961 395.414C763.847 395.414 762.031 394.949 760.514 394.021C759.006 393.092 757.843 391.81 757.025 390.173C756.216 388.528 755.811 386.634 755.811 384.491C755.811 382.34 756.225 380.441 757.053 378.796C757.88 377.141 759.048 375.854 760.555 374.934C762.072 374.006 763.865 373.541 765.934 373.541C767.653 373.541 769.175 373.859 770.499 374.493C771.832 375.118 772.894 376.005 773.684 377.155C774.475 378.295 774.925 379.628 775.036 381.154H770.264C770.071 380.133 769.611 379.283 768.885 378.603C768.168 377.913 767.207 377.568 766.003 377.568C764.982 377.568 764.086 377.844 763.314 378.396C762.541 378.938 761.939 379.72 761.507 380.74C761.084 381.761 760.873 382.984 760.873 384.409C760.873 385.852 761.084 387.093 761.507 388.132C761.93 389.162 762.523 389.957 763.286 390.518C764.058 391.07 764.964 391.345 766.003 391.345C766.738 391.345 767.396 391.208 767.975 390.932C768.563 390.647 769.055 390.238 769.451 389.704C769.846 389.171 770.117 388.523 770.264 387.76H775.036C774.916 389.258 774.475 390.587 773.712 391.745C772.949 392.895 771.91 393.796 770.595 394.448C769.28 395.092 767.736 395.414 765.961 395.414ZM788.513 395.414C786.389 395.414 784.555 394.972 783.01 394.09C781.475 393.198 780.294 391.938 779.466 390.311C778.639 388.675 778.225 386.748 778.225 384.533C778.225 382.354 778.639 380.441 779.466 378.796C780.303 377.141 781.47 375.854 782.969 374.934C784.468 374.006 786.228 373.541 788.251 373.541C789.556 373.541 790.788 373.753 791.947 374.176C793.114 374.59 794.144 375.233 795.036 376.107C795.937 376.98 796.645 378.092 797.16 379.444C797.675 380.786 797.932 382.386 797.932 384.243V385.774H780.569V382.409H793.147C793.137 381.453 792.931 380.602 792.526 379.858C792.122 379.104 791.556 378.511 790.83 378.079C790.113 377.647 789.276 377.43 788.32 377.43C787.299 377.43 786.403 377.679 785.631 378.175C784.858 378.662 784.256 379.306 783.824 380.106C783.401 380.897 783.185 381.765 783.176 382.712V385.65C783.176 386.882 783.401 387.939 783.852 388.822C784.302 389.695 784.932 390.366 785.741 390.835C786.55 391.295 787.497 391.525 788.582 391.525C789.308 391.525 789.966 391.424 790.554 391.221C791.142 391.01 791.653 390.702 792.085 390.297C792.517 389.893 792.843 389.392 793.064 388.794L797.725 389.318C797.431 390.55 796.87 391.626 796.043 392.545C795.224 393.455 794.176 394.163 792.898 394.669C791.62 395.165 790.159 395.414 788.513 395.414Z" fill="#24223C"/>
<path fill-rule="evenodd" clip-rule="evenodd" d="M106.904 365C103.091 365 100 368.091 100 371.904V389.096C100 392.909 103.091 396 106.904 396H124.096C127.909 396 131 392.909 131 389.096V371.904C131 368.091 127.909 365 124.096 365H106.904ZM116.834 383.549C116.602 383.409 116.383 383.275 116.174 383.148C116.512 382.912 116.811 382.686 117.063 382.467C117.706 381.908 118.238 381.227 118.238 380.294C118.238 379.362 117.706 378.68 117.063 378.122C116.811 377.902 116.512 377.677 116.174 377.441C116.383 377.313 116.602 377.18 116.834 377.04L119.267 375.565C121.819 374.017 123.096 373.243 124.061 373.789C125.027 374.334 125.027 375.829 125.027 378.819V381.77C125.027 384.759 125.027 386.254 124.061 386.8C123.096 387.345 121.819 386.572 119.267 385.024L116.834 383.549ZM111.876 375.796L113.897 377.086C116.158 378.529 117.289 379.251 117.289 380.294C117.289 381.338 116.158 382.06 113.897 383.503L111.876 384.793L111.875 384.793L111.875 384.793C109.299 386.437 108.011 387.26 107.026 386.718C106.041 386.176 106.041 384.646 106.041 381.585V379.004C106.041 375.943 106.041 374.412 107.026 373.871C108.011 373.329 109.299 374.151 111.876 375.796L111.876 375.796Z" fill="#24223C"/>
<path d="M633.894 343C666.506 342.92 682.813 326.4 682.813 293.44V204.64H631.611V238.24H648.798V293.44C648.798 304.08 643.83 309.4 633.894 309.4C624.038 309.4 619.111 304.08 619.111 293.44V149.44C619.111 138.8 623.998 133.48 633.774 133.48H634.014C643.87 133.56 648.798 138.88 648.798 149.44V181.12H682.813V149.44C682.813 116.48 666.506 100 633.894 100C601.362 100 585.096 116.48 585.096 149.44V293.44C585.096 326.48 601.362 343 633.894 343Z" fill="#24223C"/>
<path fill-rule="evenodd" clip-rule="evenodd" d="M174.038 265L213.582 103.72H247.596V202.984H390.149C387.391 196.267 385.871 188.912 385.871 181.203V161C385.871 148.959 376.095 138.199 364.035 138.199H275.178V103.524H363.035C394.829 103.524 420.603 129.257 420.603 161V181.203C420.603 192.931 429.879 202.496 441.505 202.984L462.019 202.997V103.72H511.538C541.747 103.8 556.851 120.32 556.851 153.28V188.68C556.851 209.4 547.917 223.04 530.048 229.6L568.269 339.16H531.01L500.361 235.6L496.034 236.2V339.16H462.019V235.677C455.984 235.675 449.948 235.672 443.913 235.669C433.987 235.664 424.062 235.659 414.135 235.659V235.672H398.255C386.195 235.672 376.418 245.433 376.418 257.474V281.524C376.418 313.267 350.644 339 318.85 339H275.178V304.325H319.85C331.91 304.325 341.686 293.564 341.686 281.524V257.474C341.686 249.752 343.212 242.386 345.978 235.659H247.596V339.16H215.024V207.04L185.938 339.16H162.861L132.933 207.04V339.16H100V103.72H134.014L174.038 265ZM496.034 137.2V204.64H503.846C508.574 204.64 511.819 204.32 513.582 203.68C519.752 201.2 522.836 196.2 522.836 188.68V153.28C522.836 142.56 517.909 137.2 508.053 137.2H496.034Z" fill="#24223C"/>
<path d="M711.779 103.72H800V137.2H745.793V204.64H792.428V238.24H745.793V305.68H800V339.16H711.779V103.72Z" fill="#24223C"/>
<path d="M162.668 108.729V104.357H149.67V108.729H153.907V135.104H158.431V108.729H162.668Z" fill="#24223C"/>
<path d="M170.086 104.357H165.561V135.104H170.086V121.924H174.034V135.104H178.559V104.357H174.034V117.536H170.086V104.357Z" fill="#24223C"/>
<path d="M182.731 104.357H194.466V108.729H187.256V117.536H193.458V121.924H187.256V130.732H194.466V135.104H182.731V104.357Z" fill="#24223C"/>
</svg>
