<svg width="922" height="443" viewBox="0 0 922 443" fill="none" xmlns="http://www.w3.org/2000/svg">
<path d="M633.894 343C666.506 342.92 682.813 326.4 682.813 293.44V204.64H631.611V238.24H648.798V293.44C648.798 304.08 643.83 309.4 633.894 309.4C624.038 309.4 619.111 304.08 619.111 293.44V149.44C619.111 138.8 623.998 133.48 633.774 133.48H634.014C643.87 133.56 648.798 138.88 648.798 149.44V181.12H682.813V149.44C682.813 116.48 666.506 100 633.894 100C601.362 100 585.096 116.48 585.096 149.44V293.44C585.096 326.48 601.362 343 633.894 343Z" fill="#24223C"/>
<path fill-rule="evenodd" clip-rule="evenodd" d="M174.038 265L213.582 103.72H247.596V202.984H390.149C387.391 196.267 385.871 188.912 385.871 181.203V161C385.871 148.959 376.095 138.199 364.035 138.199H275.178V103.524H363.035C394.829 103.524 420.603 129.257 420.603 161V181.203C420.603 192.931 429.879 202.496 441.505 202.984L462.019 202.997V103.72H511.538C541.747 103.8 556.851 120.32 556.851 153.28V188.68C556.851 209.4 547.917 223.04 530.048 229.6L568.269 339.16H531.01L500.361 235.6L496.034 236.2V339.16H462.019V235.677C455.984 235.675 449.948 235.672 443.913 235.669C433.987 235.664 424.062 235.659 414.135 235.659V235.672H398.255C386.195 235.672 376.418 245.433 376.418 257.474V281.524C376.418 313.267 350.644 339 318.85 339H275.178V304.325H319.85C331.91 304.325 341.686 293.564 341.686 281.524V257.474C341.686 249.752 343.212 242.386 345.978 235.659H247.596V339.16H215.024V207.04L185.938 339.16H162.861L132.933 207.04V339.16H100V103.72H134.014L174.038 265ZM496.034 137.2V204.64H503.846C508.574 204.64 511.819 204.32 513.582 203.68C519.752 201.2 522.836 196.2 522.836 188.68V153.28C522.836 142.56 517.909 137.2 508.053 137.2H496.034Z" fill="#24223C"/>
<path d="M711.779 103.72H800V137.2H745.793V204.64H792.428V238.24H745.793V305.68H800V339.16H711.779V103.72Z" fill="#24223C"/>
<path d="M162.668 108.729V104.357H149.67V108.729H153.907V135.104H158.431V108.729H162.668Z" fill="#24223C"/>
<path d="M170.086 104.357H165.561V135.104H170.086V121.924H174.034V135.104H178.559V104.357H174.034V117.536H170.086V104.357Z" fill="#24223C"/>
<path d="M182.731 104.357H194.466V108.729H187.256V117.536H193.458V121.924H187.256V130.732H194.466V135.104H182.731V104.357Z" fill="#24223C"/>
</svg>
