<svg width="922" height="510" viewBox="0 0 922 510" fill="none" xmlns="http://www.w3.org/2000/svg">
<path d="M644.894 343C677.506 342.92 693.813 326.4 693.813 293.44V204.64H642.611V238.24H659.798V293.44C659.798 304.08 654.83 309.4 644.894 309.4C635.038 309.4 630.111 304.08 630.111 293.44V149.44C630.111 138.8 634.998 133.48 644.774 133.48H645.014C654.87 133.56 659.798 138.88 659.798 149.44V181.12H693.813V149.44C693.813 116.48 677.506 100 644.894 100C612.362 100 596.096 116.48 596.096 149.44V293.44C596.096 326.48 612.362 343 644.894 343Z" fill="#FAFAF2"/>
<path fill-rule="evenodd" clip-rule="evenodd" d="M185.038 265L224.582 103.72H258.596V202.984H401.149C398.391 196.267 396.871 188.912 396.871 181.203V161C396.871 148.959 387.095 138.199 375.035 138.199H286.178V103.524H374.035C405.829 103.524 431.603 129.257 431.603 161V181.203C431.603 192.931 440.879 202.496 452.505 202.984L473.019 202.997V103.72H522.538C552.747 103.8 567.851 120.32 567.851 153.28V188.68C567.851 209.4 558.917 223.04 541.048 229.6L579.269 339.16H542.01L511.361 235.6L507.034 236.2V339.16H473.019V235.677C466.984 235.675 460.948 235.672 454.913 235.669C444.987 235.664 435.062 235.659 425.135 235.659V235.672H409.255C397.195 235.672 387.418 245.433 387.418 257.474V281.524C387.418 313.267 361.644 339 329.85 339H286.178V304.325H330.85C342.91 304.325 352.686 293.564 352.686 281.524V257.474C352.686 249.752 354.212 242.386 356.978 235.659H258.596V339.16H226.024V207.04L196.938 339.16H173.861L143.933 207.04V339.16H111V103.72H145.014L185.038 265ZM507.034 137.2V204.64H514.846C519.574 204.64 522.819 204.32 524.582 203.68C530.752 201.2 533.836 196.2 533.836 188.68V153.28C533.836 142.56 528.909 137.2 519.053 137.2H507.034Z" fill="#FAFAF2"/>
<path d="M722.779 103.72H811V137.2H756.793V204.64H803.428V238.24H756.793V305.68H811V339.16H722.779V103.72Z" fill="#FAFAF2"/>
<path d="M173.668 108.729V104.357H160.67V108.729H164.907V135.104H169.431V108.729H173.668Z" fill="#FAFAF2"/>
<path d="M181.086 104.357H176.561V135.104H181.086V121.924H185.034V135.104H189.559V104.357H185.034V117.536H181.086V104.357Z" fill="#FAFAF2"/>
<path d="M193.731 104.357H205.466V108.729H198.256V117.536H204.458V121.924H198.256V130.732H205.466V135.104H193.731V104.357Z" fill="#FAFAF2"/>
<path d="M166.842 371.432L157.74 405.248H153.368L162.47 371.432H166.842ZM189.452 401H179.881V372.756H189.645C192.449 372.756 194.858 373.322 196.871 374.453C198.894 375.574 200.448 377.188 201.533 379.293C202.617 381.399 203.16 383.918 203.16 386.851C203.16 389.793 202.613 392.321 201.519 394.436C200.434 396.55 198.866 398.173 196.816 399.304C194.775 400.435 192.32 401 189.452 401ZM184.997 396.573H189.204C191.171 396.573 192.812 396.215 194.127 395.497C195.442 394.771 196.43 393.691 197.092 392.257C197.754 390.813 198.085 389.011 198.085 386.851C198.085 384.69 197.754 382.897 197.092 381.472C196.43 380.038 195.451 378.967 194.154 378.259C192.867 377.542 191.268 377.183 189.355 377.183H184.997V396.573ZM217.178 401.414C215.054 401.414 213.22 400.972 211.676 400.09C210.14 399.198 208.959 397.938 208.131 396.311C207.304 394.675 206.89 392.748 206.89 390.533C206.89 388.354 207.304 386.441 208.131 384.796C208.968 383.141 210.136 381.854 211.634 380.934C213.133 380.006 214.894 379.541 216.916 379.541C218.222 379.541 219.454 379.753 220.612 380.176C221.78 380.59 222.81 381.233 223.701 382.107C224.602 382.98 225.31 384.092 225.825 385.444C226.34 386.786 226.597 388.386 226.597 390.243V391.774H209.235V388.409H221.812C221.803 387.453 221.596 386.602 221.191 385.858C220.787 385.104 220.221 384.511 219.495 384.079C218.778 383.647 217.941 383.43 216.985 383.43C215.965 383.43 215.068 383.679 214.296 384.175C213.524 384.662 212.922 385.306 212.489 386.106C212.066 386.897 211.85 387.765 211.841 388.712V391.65C211.841 392.882 212.066 393.939 212.517 394.822C212.967 395.695 213.597 396.366 214.406 396.835C215.215 397.295 216.162 397.525 217.247 397.525C217.974 397.525 218.631 397.424 219.219 397.221C219.808 397.01 220.318 396.702 220.75 396.297C221.182 395.893 221.509 395.392 221.729 394.794L226.391 395.318C226.096 396.55 225.536 397.626 224.708 398.545C223.89 399.455 222.842 400.163 221.564 400.669C220.286 401.165 218.824 401.414 217.178 401.414ZM249.135 379.817L241.591 401H236.075L228.532 379.817H233.855L238.723 395.553H238.944L243.826 379.817H249.135ZM261.247 401.414C259.123 401.414 257.289 400.972 255.744 400.09C254.209 399.198 253.028 397.938 252.2 396.311C251.373 394.675 250.959 392.748 250.959 390.533C250.959 388.354 251.373 386.441 252.2 384.796C253.037 383.141 254.204 381.854 255.703 380.934C257.202 380.006 258.962 379.541 260.985 379.541C262.29 379.541 263.522 379.753 264.681 380.176C265.848 380.59 266.878 381.233 267.77 382.107C268.671 382.98 269.379 384.092 269.894 385.444C270.409 386.786 270.666 388.386 270.666 390.243V391.774H253.303V388.409H265.881C265.871 387.453 265.664 386.602 265.26 385.858C264.855 385.104 264.29 384.511 263.564 384.079C262.847 383.647 262.01 383.43 261.054 383.43C260.033 383.43 259.137 383.679 258.365 384.175C257.592 384.662 256.99 385.306 256.558 386.106C256.135 386.897 255.919 387.765 255.91 388.712V391.65C255.91 392.882 256.135 393.939 256.586 394.822C257.036 395.695 257.666 396.366 258.475 396.835C259.284 397.295 260.231 397.525 261.316 397.525C262.042 397.525 262.699 397.424 263.288 397.221C263.876 397.01 264.387 396.702 264.819 396.297C265.251 395.893 265.577 395.392 265.798 394.794L270.459 395.318C270.165 396.55 269.604 397.626 268.777 398.545C267.958 399.455 266.91 400.163 265.632 400.669C264.354 401.165 262.893 401.414 261.247 401.414ZM279.882 372.756V401H274.889V372.756H279.882ZM294.255 401.414C292.187 401.414 290.394 400.959 288.877 400.048C287.36 399.138 286.183 397.865 285.346 396.228C284.519 394.592 284.105 392.68 284.105 390.491C284.105 388.303 284.519 386.386 285.346 384.741C286.183 383.095 287.36 381.817 288.877 380.907C290.394 379.997 292.187 379.541 294.255 379.541C296.324 379.541 298.117 379.997 299.634 380.907C301.151 381.817 302.323 383.095 303.15 384.741C303.987 386.386 304.405 388.303 304.405 390.491C304.405 392.68 303.987 394.592 303.15 396.228C302.323 397.865 301.151 399.138 299.634 400.048C298.117 400.959 296.324 401.414 294.255 401.414ZM294.283 397.414C295.404 397.414 296.342 397.106 297.096 396.49C297.85 395.865 298.411 395.029 298.779 393.98C299.156 392.932 299.344 391.765 299.344 390.478C299.344 389.181 299.156 388.009 298.779 386.961C298.411 385.904 297.85 385.062 297.096 384.437C296.342 383.812 295.404 383.499 294.283 383.499C293.134 383.499 292.177 383.812 291.414 384.437C290.66 385.062 290.095 385.904 289.718 386.961C289.35 388.009 289.166 389.181 289.166 390.478C289.166 391.765 289.35 392.932 289.718 393.98C290.095 395.029 290.66 395.865 291.414 396.49C292.177 397.106 293.134 397.414 294.283 397.414ZM308.642 408.944V379.817H313.552V383.32H313.842C314.099 382.805 314.462 382.258 314.931 381.679C315.4 381.091 316.034 380.59 316.834 380.176C317.634 379.753 318.655 379.541 319.896 379.541C321.532 379.541 323.008 379.96 324.323 380.796C325.647 381.624 326.695 382.851 327.467 384.479C328.248 386.097 328.639 388.083 328.639 390.436C328.639 392.762 328.258 394.739 327.494 396.366C326.731 397.994 325.692 399.235 324.378 400.09C323.063 400.945 321.574 401.372 319.91 401.372C318.696 401.372 317.689 401.17 316.889 400.766C316.089 400.361 315.446 399.874 314.959 399.304C314.481 398.725 314.108 398.177 313.842 397.663H313.635V408.944H308.642ZM313.538 390.409C313.538 391.779 313.731 392.978 314.117 394.008C314.513 395.038 315.078 395.842 315.814 396.421C316.558 396.991 317.459 397.276 318.517 397.276C319.62 397.276 320.544 396.982 321.289 396.394C322.033 395.796 322.594 394.983 322.971 393.953C323.357 392.914 323.55 391.733 323.55 390.409C323.55 389.094 323.362 387.926 322.985 386.906C322.608 385.885 322.047 385.085 321.302 384.506C320.558 383.927 319.629 383.637 318.517 383.637C317.45 383.637 316.545 383.918 315.8 384.479C315.055 385.039 314.49 385.826 314.104 386.837C313.727 387.848 313.538 389.039 313.538 390.409ZM342.292 401.414C340.168 401.414 338.334 400.972 336.789 400.09C335.254 399.198 334.073 397.938 333.245 396.311C332.418 394.675 332.004 392.748 332.004 390.533C332.004 388.354 332.418 386.441 333.245 384.796C334.082 383.141 335.25 381.854 336.748 380.934C338.247 380.006 340.007 379.541 342.03 379.541C343.336 379.541 344.568 379.753 345.726 380.176C346.894 380.59 347.923 381.233 348.815 382.107C349.716 382.98 350.424 384.092 350.939 385.444C351.454 386.786 351.711 388.386 351.711 390.243V391.774H334.349V388.409H346.926C346.917 387.453 346.71 386.602 346.305 385.858C345.901 385.104 345.335 384.511 344.609 384.079C343.892 383.647 343.055 383.43 342.099 383.43C341.078 383.43 340.182 383.679 339.41 384.175C338.637 384.662 338.035 385.306 337.603 386.106C337.18 386.897 336.964 387.765 336.955 388.712V391.65C336.955 392.882 337.18 393.939 337.631 394.822C338.081 395.695 338.711 396.366 339.52 396.835C340.329 397.295 341.276 397.525 342.361 397.525C343.087 397.525 343.745 397.424 344.333 397.221C344.921 397.01 345.432 396.702 345.864 396.297C346.296 395.893 346.622 395.392 346.843 394.794L351.504 395.318C351.21 396.55 350.649 397.626 349.822 398.545C349.004 399.455 347.955 400.163 346.678 400.669C345.4 401.165 343.938 401.414 342.292 401.414ZM355.935 401V379.817H360.775V383.348H360.996C361.382 382.125 362.044 381.183 362.982 380.521C363.929 379.849 365.009 379.514 366.223 379.514C366.498 379.514 366.806 379.528 367.147 379.555C367.496 379.574 367.786 379.606 368.015 379.652V384.244C367.804 384.171 367.468 384.106 367.009 384.051C366.558 383.987 366.121 383.955 365.699 383.955C364.788 383.955 363.97 384.152 363.244 384.548C362.527 384.934 361.961 385.472 361.547 386.161C361.134 386.851 360.927 387.646 360.927 388.547V401H355.935ZM390.343 401.414C388.219 401.414 386.385 400.972 384.84 400.09C383.305 399.198 382.123 397.938 381.296 396.311C380.468 394.675 380.055 392.748 380.055 390.533C380.055 388.354 380.468 386.441 381.296 384.796C382.133 383.141 383.3 381.854 384.799 380.934C386.297 380.006 388.058 379.541 390.081 379.541C391.386 379.541 392.618 379.753 393.777 380.176C394.944 380.59 395.974 381.233 396.866 382.107C397.767 382.98 398.475 384.092 398.99 385.444C399.504 386.786 399.762 388.386 399.762 390.243V391.774H382.399V388.409H394.976C394.967 387.453 394.76 386.602 394.356 385.858C393.951 385.104 393.386 384.511 392.66 384.079C391.942 383.647 391.106 383.43 390.15 383.43C389.129 383.43 388.233 383.679 387.46 384.175C386.688 384.662 386.086 385.306 385.654 386.106C385.231 386.897 385.015 387.765 385.006 388.712V391.65C385.006 392.882 385.231 393.939 385.681 394.822C386.132 395.695 386.762 396.366 387.571 396.835C388.38 397.295 389.327 397.525 390.412 397.525C391.138 397.525 391.795 397.424 392.384 397.221C392.972 397.01 393.482 396.702 393.915 396.297C394.347 395.893 394.673 395.392 394.894 394.794L399.555 395.318C399.261 396.55 398.7 397.626 397.872 398.545C397.054 399.455 396.006 400.163 394.728 400.669C393.45 401.165 391.988 401.414 390.343 401.414ZM407.612 379.817L411.887 387.637L416.232 379.817H421.513L415.128 390.409L421.624 401H416.369L411.887 393.374L407.447 401H402.151L408.605 390.409L402.317 379.817H407.612ZM425.375 408.944V379.817H430.284V383.32H430.574C430.831 382.805 431.195 382.258 431.663 381.679C432.132 381.091 432.767 380.59 433.567 380.176C434.366 379.753 435.387 379.541 436.628 379.541C438.265 379.541 439.74 379.96 441.055 380.796C442.379 381.624 443.427 382.851 444.199 384.479C444.981 386.097 445.372 388.083 445.372 390.436C445.372 392.762 444.99 394.739 444.227 396.366C443.464 397.994 442.425 399.235 441.11 400.09C439.795 400.945 438.306 401.372 436.642 401.372C435.428 401.372 434.422 401.17 433.622 400.766C432.822 400.361 432.178 399.874 431.691 399.304C431.213 398.725 430.841 398.177 430.574 397.663H430.367V408.944H425.375ZM430.271 390.409C430.271 391.779 430.464 392.978 430.85 394.008C431.245 395.038 431.811 395.842 432.546 396.421C433.291 396.991 434.192 397.276 435.249 397.276C436.352 397.276 437.276 396.982 438.021 396.394C438.766 395.796 439.327 394.983 439.704 393.953C440.09 392.914 440.283 391.733 440.283 390.409C440.283 389.094 440.094 387.926 439.717 386.906C439.34 385.885 438.78 385.085 438.035 384.506C437.29 383.927 436.362 383.637 435.249 383.637C434.183 383.637 433.277 383.918 432.532 384.479C431.788 385.039 431.222 385.826 430.836 386.837C430.459 387.848 430.271 389.039 430.271 390.409ZM459.024 401.414C456.901 401.414 455.066 400.972 453.522 400.09C451.987 399.198 450.805 397.938 449.978 396.311C449.15 394.675 448.736 392.748 448.736 390.533C448.736 388.354 449.15 386.441 449.978 384.796C450.814 383.141 451.982 381.854 453.481 380.934C454.979 380.006 456.74 379.541 458.762 379.541C460.068 379.541 461.3 379.753 462.458 380.176C463.626 380.59 464.656 381.233 465.547 382.107C466.448 382.98 467.156 384.092 467.671 385.444C468.186 386.786 468.444 388.386 468.444 390.243V391.774H451.081V388.409H463.658C463.649 387.453 463.442 386.602 463.038 385.858C462.633 385.104 462.068 384.511 461.341 384.079C460.624 383.647 459.788 383.43 458.831 383.43C457.811 383.43 456.914 383.679 456.142 384.175C455.37 384.662 454.768 385.306 454.336 386.106C453.913 386.897 453.697 387.765 453.687 388.712V391.65C453.687 392.882 453.913 393.939 454.363 394.822C454.814 395.695 455.443 396.366 456.252 396.835C457.062 397.295 458.009 397.525 459.093 397.525C459.82 397.525 460.477 397.424 461.065 397.221C461.654 397.01 462.164 396.702 462.596 396.297C463.028 395.893 463.355 395.392 463.575 394.794L468.237 395.318C467.942 396.55 467.382 397.626 466.554 398.545C465.736 399.455 464.688 400.163 463.41 400.669C462.132 401.165 460.67 401.414 459.024 401.414ZM472.667 401V379.817H477.508V383.348H477.728C478.114 382.125 478.776 381.183 479.714 380.521C480.661 379.849 481.741 379.514 482.955 379.514C483.231 379.514 483.539 379.528 483.879 379.555C484.228 379.574 484.518 379.606 484.748 379.652V384.244C484.536 384.171 484.201 384.106 483.741 384.051C483.291 383.987 482.854 383.955 482.431 383.955C481.521 383.955 480.702 384.152 479.976 384.548C479.259 384.934 478.694 385.472 478.28 386.161C477.866 386.851 477.659 387.646 477.659 388.547V401H472.667ZM488.064 401V379.817H493.057V401H488.064ZM490.574 376.811C489.784 376.811 489.103 376.549 488.533 376.025C487.963 375.492 487.678 374.853 487.678 374.108C487.678 373.354 487.963 372.715 488.533 372.191C489.103 371.658 489.784 371.391 490.574 371.391C491.374 371.391 492.055 371.658 492.615 372.191C493.185 372.715 493.47 373.354 493.47 374.108C493.47 374.853 493.185 375.492 492.615 376.025C492.055 376.549 491.374 376.811 490.574 376.811ZM507.568 401.414C505.444 401.414 503.61 400.972 502.066 400.09C500.53 399.198 499.349 397.938 498.521 396.311C497.694 394.675 497.28 392.748 497.28 390.533C497.28 388.354 497.694 386.441 498.521 384.796C499.358 383.141 500.526 381.854 502.024 380.934C503.523 380.006 505.283 379.541 507.306 379.541C508.612 379.541 509.844 379.753 511.002 380.176C512.17 380.59 513.199 381.233 514.091 382.107C514.992 382.98 515.7 384.092 516.215 385.444C516.73 386.786 516.987 388.386 516.987 390.243V391.774H499.625V388.409H512.202C512.193 387.453 511.986 386.602 511.581 385.858C511.177 385.104 510.611 384.511 509.885 384.079C509.168 383.647 508.331 383.43 507.375 383.43C506.355 383.43 505.458 383.679 504.686 384.175C503.914 384.662 503.311 385.306 502.879 386.106C502.456 386.897 502.24 387.765 502.231 388.712V391.65C502.231 392.882 502.456 393.939 502.907 394.822C503.357 395.695 503.987 396.366 504.796 396.835C505.605 397.295 506.552 397.525 507.637 397.525C508.363 397.525 509.021 397.424 509.609 397.221C510.198 397.01 510.708 396.702 511.14 396.297C511.572 395.893 511.898 395.392 512.119 394.794L516.78 395.318C516.486 396.55 515.925 397.626 515.098 398.545C514.28 399.455 513.232 400.163 511.954 400.669C510.676 401.165 509.214 401.414 507.568 401.414ZM526.203 388.588V401H521.211V379.817H525.982V383.417H526.231C526.718 382.231 527.495 381.288 528.561 380.59C529.637 379.891 530.965 379.541 532.547 379.541C534.009 379.541 535.282 379.854 536.367 380.479C537.461 381.104 538.307 382.01 538.904 383.196C539.511 384.382 539.81 385.821 539.801 387.513V401H534.808V388.285C534.808 386.869 534.441 385.761 533.705 384.961C532.979 384.161 531.972 383.761 530.685 383.761C529.812 383.761 529.035 383.955 528.354 384.341C527.683 384.718 527.155 385.265 526.768 385.982C526.391 386.699 526.203 387.568 526.203 388.588ZM554.116 401.414C552.001 401.414 550.185 400.949 548.668 400.021C547.16 399.092 545.997 397.81 545.179 396.173C544.37 394.528 543.966 392.634 543.966 390.491C543.966 388.34 544.379 386.441 545.207 384.796C546.034 383.141 547.202 381.854 548.71 380.934C550.227 380.006 552.019 379.541 554.088 379.541C555.807 379.541 557.329 379.859 558.653 380.493C559.986 381.118 561.048 382.005 561.838 383.155C562.629 384.295 563.08 385.628 563.19 387.154H558.418C558.225 386.133 557.766 385.283 557.039 384.603C556.322 383.913 555.361 383.568 554.157 383.568C553.136 383.568 552.24 383.844 551.468 384.396C550.695 384.938 550.093 385.72 549.661 386.74C549.238 387.761 549.027 388.984 549.027 390.409C549.027 391.852 549.238 393.093 549.661 394.132C550.084 395.162 550.677 395.957 551.44 396.518C552.212 397.07 553.118 397.345 554.157 397.345C554.892 397.345 555.55 397.208 556.129 396.932C556.717 396.647 557.209 396.238 557.605 395.704C558 395.171 558.271 394.523 558.418 393.76H563.19C563.07 395.258 562.629 396.587 561.866 397.745C561.103 398.895 560.064 399.796 558.749 400.448C557.435 401.092 555.89 401.414 554.116 401.414ZM576.667 401.414C574.543 401.414 572.709 400.972 571.164 400.09C569.629 399.198 568.448 397.938 567.62 396.311C566.793 394.675 566.379 392.748 566.379 390.533C566.379 388.354 566.793 386.441 567.62 384.796C568.457 383.141 569.625 381.854 571.123 380.934C572.622 380.006 574.382 379.541 576.405 379.541C577.711 379.541 578.943 379.753 580.101 380.176C581.269 380.59 582.298 381.233 583.19 382.107C584.091 382.98 584.799 384.092 585.314 385.444C585.829 386.786 586.086 388.386 586.086 390.243V391.774H568.724V388.409H581.301C581.292 387.453 581.085 386.602 580.68 385.858C580.276 385.104 579.71 384.511 578.984 384.079C578.267 383.647 577.43 383.43 576.474 383.43C575.453 383.43 574.557 383.679 573.785 384.175C573.012 384.662 572.41 385.306 571.978 386.106C571.555 386.897 571.339 387.765 571.33 388.712V391.65C571.33 392.882 571.555 393.939 572.006 394.822C572.456 395.695 573.086 396.366 573.895 396.835C574.704 397.295 575.651 397.525 576.736 397.525C577.462 397.525 578.12 397.424 578.708 397.221C579.296 397.01 579.807 396.702 580.239 396.297C580.671 395.893 580.997 395.392 581.218 394.794L585.879 395.318C585.585 396.55 585.024 397.626 584.197 398.545C583.379 399.455 582.33 400.163 581.053 400.669C579.775 401.165 578.313 401.414 576.667 401.414ZM609.182 401.414C607.068 401.414 605.252 400.949 603.735 400.021C602.227 399.092 601.064 397.81 600.246 396.173C599.437 394.528 599.032 392.634 599.032 390.491C599.032 388.34 599.446 386.441 600.273 384.796C601.101 383.141 602.269 381.854 603.776 380.934C605.293 380.006 607.086 379.541 609.155 379.541C610.874 379.541 612.396 379.859 613.72 380.493C615.053 381.118 616.115 382.005 616.905 383.155C617.696 384.295 618.146 385.628 618.257 387.154H613.485C613.292 386.133 612.832 385.283 612.106 384.603C611.389 383.913 610.428 383.568 609.224 383.568C608.203 383.568 607.307 383.844 606.534 384.396C605.762 384.938 605.16 385.72 604.728 386.74C604.305 387.761 604.094 388.984 604.094 390.409C604.094 391.852 604.305 393.093 604.728 394.132C605.151 395.162 605.744 395.957 606.507 396.518C607.279 397.07 608.185 397.345 609.224 397.345C609.959 397.345 610.617 397.208 611.196 396.932C611.784 396.647 612.276 396.238 612.671 395.704C613.067 395.171 613.338 394.523 613.485 393.76H618.257C618.137 395.258 617.696 396.587 616.933 397.745C616.17 398.895 615.131 399.796 613.816 400.448C612.501 401.092 610.957 401.414 609.182 401.414ZM631.596 401.414C629.527 401.414 627.734 400.959 626.217 400.048C624.7 399.138 623.524 397.865 622.687 396.228C621.86 394.592 621.446 392.68 621.446 390.491C621.446 388.303 621.86 386.386 622.687 384.741C623.524 383.095 624.7 381.817 626.217 380.907C627.734 379.997 629.527 379.541 631.596 379.541C633.664 379.541 635.457 379.997 636.974 380.907C638.491 381.817 639.663 383.095 640.491 384.741C641.328 386.386 641.746 388.303 641.746 390.491C641.746 392.68 641.328 394.592 640.491 396.228C639.663 397.865 638.491 399.138 636.974 400.048C635.457 400.959 633.664 401.414 631.596 401.414ZM631.623 397.414C632.745 397.414 633.683 397.106 634.437 396.49C635.191 395.865 635.752 395.029 636.119 393.98C636.496 392.932 636.685 391.765 636.685 390.478C636.685 389.181 636.496 388.009 636.119 386.961C635.752 385.904 635.191 385.062 634.437 384.437C633.683 383.812 632.745 383.499 631.623 383.499C630.474 383.499 629.518 383.812 628.755 384.437C628.001 385.062 627.436 385.904 627.059 386.961C626.691 388.009 626.507 389.181 626.507 390.478C626.507 391.765 626.691 392.932 627.059 393.98C627.436 395.029 628.001 395.865 628.755 396.49C629.518 397.106 630.474 397.414 631.623 397.414ZM650.975 388.588V401H645.983V379.817H650.755V383.417H651.003C651.49 382.231 652.267 381.288 653.334 380.59C654.409 379.891 655.738 379.541 657.319 379.541C658.781 379.541 660.054 379.854 661.139 380.479C662.233 381.104 663.079 382.01 663.677 383.196C664.284 384.382 664.582 385.821 664.573 387.513V401H659.581V388.285C659.581 386.869 659.213 385.761 658.478 384.961C657.751 384.161 656.745 383.761 655.457 383.761C654.584 383.761 653.807 383.955 653.127 384.341C652.456 384.718 651.927 385.265 651.541 385.982C651.164 386.699 650.975 387.568 650.975 388.588ZM680.377 379.817V383.679H667.855V379.817H680.377ZM670.986 401V377.818C670.986 376.393 671.28 375.207 671.868 374.26C672.466 373.313 673.266 372.605 674.268 372.136C675.27 371.667 676.383 371.432 677.605 371.432C678.47 371.432 679.237 371.501 679.909 371.639C680.58 371.777 681.076 371.901 681.398 372.012L680.405 375.873C680.194 375.809 679.927 375.744 679.605 375.68C679.283 375.607 678.925 375.57 678.529 375.57C677.601 375.57 676.944 375.795 676.557 376.245C676.18 376.687 675.992 377.321 675.992 378.149V401H670.986ZM692.868 401.414C690.745 401.414 688.91 400.972 687.366 400.09C685.831 399.198 684.649 397.938 683.822 396.311C682.994 394.675 682.58 392.748 682.58 390.533C682.58 388.354 682.994 386.441 683.822 384.796C684.658 383.141 685.826 381.854 687.325 380.934C688.823 380.006 690.584 379.541 692.606 379.541C693.912 379.541 695.144 379.753 696.302 380.176C697.47 380.59 698.5 381.233 699.392 382.107C700.293 382.98 701 384.092 701.515 385.444C702.03 386.786 702.288 388.386 702.288 390.243V391.774H684.925V388.409H697.502C697.493 387.453 697.286 386.602 696.882 385.858C696.477 385.104 695.912 384.511 695.185 384.079C694.468 383.647 693.632 383.43 692.675 383.43C691.655 383.43 690.758 383.679 689.986 384.175C689.214 384.662 688.612 385.306 688.18 386.106C687.757 386.897 687.541 387.765 687.531 388.712V391.65C687.531 392.882 687.757 393.939 688.207 394.822C688.658 395.695 689.287 396.366 690.096 396.835C690.906 397.295 691.853 397.525 692.937 397.525C693.664 397.525 694.321 397.424 694.909 397.221C695.498 397.01 696.008 396.702 696.44 396.297C696.872 395.893 697.199 395.392 697.419 394.794L702.081 395.318C701.787 396.55 701.226 397.626 700.398 398.545C699.58 399.455 698.532 400.163 697.254 400.669C695.976 401.165 694.514 401.414 692.868 401.414ZM706.511 401V379.817H711.352V383.348H711.572C711.958 382.125 712.62 381.183 713.558 380.521C714.505 379.849 715.585 379.514 716.799 379.514C717.075 379.514 717.383 379.528 717.723 379.555C718.072 379.574 718.362 379.606 718.592 379.652V384.244C718.38 384.171 718.045 384.106 717.585 384.051C717.135 383.987 716.698 383.955 716.275 383.955C715.365 383.955 714.546 384.152 713.82 384.548C713.103 384.934 712.538 385.472 712.124 386.161C711.71 386.851 711.503 387.646 711.503 388.547V401H706.511ZM730.414 401.414C728.29 401.414 726.456 400.972 724.911 400.09C723.376 399.198 722.195 397.938 721.367 396.311C720.54 394.675 720.126 392.748 720.126 390.533C720.126 388.354 720.54 386.441 721.367 384.796C722.204 383.141 723.371 381.854 724.87 380.934C726.369 380.006 728.129 379.541 730.152 379.541C731.457 379.541 732.689 379.753 733.848 380.176C735.016 380.59 736.045 381.233 736.937 382.107C737.838 382.98 738.546 384.092 739.061 385.444C739.576 386.786 739.833 388.386 739.833 390.243V391.774H722.47V388.409H735.048C735.039 387.453 734.832 386.602 734.427 385.858C734.023 385.104 733.457 384.511 732.731 384.079C732.014 383.647 731.177 383.43 730.221 383.43C729.2 383.43 728.304 383.679 727.532 384.175C726.759 384.662 726.157 385.306 725.725 386.106C725.302 386.897 725.086 387.765 725.077 388.712V391.65C725.077 392.882 725.302 393.939 725.753 394.822C726.203 395.695 726.833 396.366 727.642 396.835C728.451 397.295 729.398 397.525 730.483 397.525C731.209 397.525 731.867 397.424 732.455 397.221C733.043 397.01 733.554 396.702 733.986 396.297C734.418 395.893 734.744 395.392 734.965 394.794L739.626 395.318C739.332 396.55 738.771 397.626 737.944 398.545C737.126 399.455 736.077 400.163 734.799 400.669C733.522 401.165 732.06 401.414 730.414 401.414ZM749.049 388.588V401H744.057V379.817H748.828V383.417H749.076C749.564 382.231 750.341 381.288 751.407 380.59C752.483 379.891 753.811 379.541 755.393 379.541C756.854 379.541 758.128 379.854 759.213 380.479C760.307 381.104 761.153 382.01 761.75 383.196C762.357 384.382 762.656 385.821 762.647 387.513V401H757.654V388.285C757.654 386.869 757.287 385.761 756.551 384.961C755.825 384.161 754.818 383.761 753.531 383.761C752.657 383.761 751.881 383.955 751.2 384.341C750.529 384.718 750 385.265 749.614 385.982C749.237 386.699 749.049 387.568 749.049 388.588ZM776.961 401.414C774.847 401.414 773.031 400.949 771.514 400.021C770.006 399.092 768.843 397.81 768.025 396.173C767.216 394.528 766.811 392.634 766.811 390.491C766.811 388.34 767.225 386.441 768.053 384.796C768.88 383.141 770.048 381.854 771.555 380.934C773.072 380.006 774.865 379.541 776.934 379.541C778.653 379.541 780.175 379.859 781.499 380.493C782.832 381.118 783.894 382.005 784.684 383.155C785.475 384.295 785.925 385.628 786.036 387.154H781.264C781.071 386.133 780.611 385.283 779.885 384.603C779.168 383.913 778.207 383.568 777.003 383.568C775.982 383.568 775.086 383.844 774.314 384.396C773.541 384.938 772.939 385.72 772.507 386.74C772.084 387.761 771.873 388.984 771.873 390.409C771.873 391.852 772.084 393.093 772.507 394.132C772.93 395.162 773.523 395.957 774.286 396.518C775.058 397.07 775.964 397.345 777.003 397.345C777.738 397.345 778.396 397.208 778.975 396.932C779.563 396.647 780.055 396.238 780.451 395.704C780.846 395.171 781.117 394.523 781.264 393.76H786.036C785.916 395.258 785.475 396.587 784.712 397.745C783.949 398.895 782.91 399.796 781.595 400.448C780.28 401.092 778.736 401.414 776.961 401.414ZM799.513 401.414C797.389 401.414 795.555 400.972 794.01 400.09C792.475 399.198 791.294 397.938 790.466 396.311C789.639 394.675 789.225 392.748 789.225 390.533C789.225 388.354 789.639 386.441 790.466 384.796C791.303 383.141 792.47 381.854 793.969 380.934C795.468 380.006 797.228 379.541 799.251 379.541C800.556 379.541 801.788 379.753 802.947 380.176C804.114 380.59 805.144 381.233 806.036 382.107C806.937 382.98 807.645 384.092 808.16 385.444C808.675 386.786 808.932 388.386 808.932 390.243V391.774H791.569V388.409H804.147C804.137 387.453 803.931 386.602 803.526 385.858C803.122 385.104 802.556 384.511 801.83 384.079C801.113 383.647 800.276 383.43 799.32 383.43C798.299 383.43 797.403 383.679 796.631 384.175C795.858 384.662 795.256 385.306 794.824 386.106C794.401 386.897 794.185 387.765 794.176 388.712V391.65C794.176 392.882 794.401 393.939 794.852 394.822C795.302 395.695 795.932 396.366 796.741 396.835C797.55 397.295 798.497 397.525 799.582 397.525C800.308 397.525 800.966 397.424 801.554 397.221C802.142 397.01 802.653 396.702 803.085 396.297C803.517 395.893 803.843 395.392 804.064 394.794L808.725 395.318C808.431 396.55 807.87 397.626 807.043 398.545C806.224 399.455 805.176 400.163 803.898 400.669C802.62 401.165 801.159 401.414 799.513 401.414Z" fill="#FAFAF2"/>
<path fill-rule="evenodd" clip-rule="evenodd" d="M117.904 371C114.091 371 111 374.091 111 377.904V395.096C111 398.909 114.091 402 117.904 402H135.096C138.909 402 142 398.909 142 395.096V377.904C142 374.091 138.909 371 135.096 371H117.904ZM127.834 389.549C127.602 389.409 127.383 389.275 127.174 389.148C127.512 388.912 127.811 388.686 128.063 388.467C128.706 387.908 129.238 387.227 129.238 386.294C129.238 385.362 128.706 384.68 128.063 384.122C127.811 383.902 127.512 383.677 127.174 383.441C127.383 383.313 127.602 383.18 127.834 383.04L130.267 381.565C132.819 380.017 134.096 379.243 135.061 379.789C136.027 380.334 136.027 381.829 136.027 384.819V387.77C136.027 390.759 136.027 392.254 135.061 392.8C134.096 393.345 132.819 392.572 130.267 391.024L127.834 389.549ZM122.876 381.796L124.897 383.086C127.158 384.529 128.289 385.251 128.289 386.294C128.289 387.338 127.158 388.06 124.897 389.503L122.876 390.793L122.875 390.793L122.875 390.793C120.299 392.437 119.011 393.26 118.026 392.718C117.041 392.176 117.041 390.646 117.041 387.585V385.004C117.041 381.943 117.041 380.412 118.026 379.871C119.011 379.329 120.299 380.151 122.876 381.796L122.876 381.796Z" fill="#FAFAF2"/>
</svg>
