<svg width="400" height="400" viewBox="0 0 400 400" fill="none" xmlns="http://www.w3.org/2000/svg">
<path d="M151.159 281.196L70.0007 281.196L70.0007 328.685L151.159 328.685C184.663 328.685 211.824 301.525 211.824 268.02V237.262C211.824 229.985 217.723 224.086 225 224.086C259.8 224.082 294.597 224.088 329.396 224.088V176.599L282.125 176.591C275.068 176.341 269.423 170.541 269.423 163.423L269.423 132.665C269.423 99.1606 242.263 72 208.758 72L70 72.3961L70 119.885L208.758 119.489C216.035 119.489 221.935 125.388 221.935 132.665L221.935 163.423C221.935 167.945 222.429 172.351 223.368 176.591L70 176.591L70 224.08L165.772 224.08C164.831 228.324 164.335 232.735 164.335 237.262L164.335 268.02C164.335 275.297 158.436 281.196 151.159 281.196Z" fill="#FAFAF2"/>
</svg>
